<svg width="28" height="19" viewBox="0 0 28 19" fill="none" xmlns="http://www.w3.org/2000/svg">
<path d="M26.3053 8.96605L22.755 10.9652L25.0375 7.28404C24.4734 6.77935 23.7566 6.47852 23.0016 6.42963L22.9484 6.42685C22.7092 6.41679 22.4714 6.38646 22.2374 6.33618L21.0371 7.01208L21.5802 6.15042C20.7711 5.81813 20.0874 5.23874 19.6264 4.49476L17.4772 5.71731L18.9327 3.39471C18.4171 2.64965 17.742 2.02913 16.9566 1.57836C16.1711 1.12759 15.295 0.857928 14.3922 0.789028C12.2286 0.675637 10.2325 1.86171 8.89905 3.80795C8.49778 4.39213 7.94866 4.85908 7.30789 5.16099C6.66711 5.4629 5.95772 5.58892 5.25235 5.52614L5.13707 5.5201C2.74734 5.39486 0.667486 8.00963 0.4921 11.3562C0.316714 14.7028 2.11209 17.5162 4.50182 17.6414C5.02749 17.6673 5.55158 17.5649 6.02903 17.3431C6.86363 16.9892 7.76516 16.8213 8.67103 16.8511C9.57691 16.8809 10.4654 17.1077 11.2749 17.5157C11.9565 17.8628 12.7034 18.0629 13.4671 18.1029C14.2308 18.1429 14.9944 18.022 15.7086 17.7481C16.5493 17.4342 17.4476 17.3051 18.3426 17.3697C19.2375 17.4342 20.108 17.6909 20.895 18.1222C21.3431 18.385 21.847 18.538 22.3654 18.5687C24.7551 18.6939 26.8348 16.0836 27.0101 12.7371C27.0949 11.4407 26.8525 10.1439 26.3053 8.96605Z" fill="#F5F8FA"/>
</svg>
